<?xml version="1.0" encoding="iso-8859-1"?>
<!-- Generator: Adobe Illustrator 16.0.0, SVG Export Plug-In . SVG Version: 6.00 Build 0)  -->
<!DOCTYPE svg PUBLIC "-//W3C//DTD SVG 1.1//EN" "http://www.w3.org/Graphics/SVG/1.1/DTD/svg11.dtd">
<svg xmlns="http://www.w3.org/2000/svg" xmlns:xlink="http://www.w3.org/1999/xlink" version="1.1" id="Capa_1" x="0px" y="0px" width="64px" height="64px" viewBox="0 0 90.13 90.13" style="enable-background:new 0 0 90.13 90.13;" xml:space="preserve">
<g>
	<path d="M45.065,0C32.739,0,22.712,10.027,22.712,22.354v33.429c0,1.021,0.826,1.845,1.845,1.845h14.099v26.091   c0,3.543,2.87,6.411,6.409,6.411c3.542,0,6.411-2.868,6.411-6.411V57.627h14.098c1.019,0,1.845-0.824,1.845-1.846V22.353   C67.418,10.027,57.39,0,45.065,0z M32.606,22.973v26.888c0,1.188-0.964,2.154-2.153,2.154c-1.19,0-2.154-0.966-2.154-2.154V22.792   c0-0.106,0.008-0.214,0.023-0.318c0.813-5.458,5.756-15.63,18.645-14.957c1.188,0.061,2.103,1.071,2.042,2.259   s-1.074,2.116-2.259,2.042C35.169,11.24,32.866,21.56,32.606,22.973z" fill="#D80027"/>
</g>
<g>
</g>
<g>
</g>
<g>
</g>
<g>
</g>
<g>
</g>
<g>
</g>
<g>
</g>
<g>
</g>
<g>
</g>
<g>
</g>
<g>
</g>
<g>
</g>
<g>
</g>
<g>
</g>
<g>
</g>
</svg>
